<?xml version="1.0" standalone="no"?><!DOCTYPE svg PUBLIC "-//W3C//DTD SVG 1.1//EN" "http://www.w3.org/Graphics/SVG/1.1/DTD/svg11.dtd"><svg xmlns:xlink="http://www.w3.org/1999/xlink" version="1.1" class="highcharts-root" style="font-family:signika, serif;font-size:12px;" xmlns="http://www.w3.org/2000/svg" width="1347" viewBox="0 0 1347 744" height="744"><desc>Created with Highcharts 5.0.0</desc><defs><clipPath id="highcharts-13"><rect x="0" y="0" width="1270" height="563" fill="none"></rect></clipPath></defs><rect fill="#ffffff" class="highcharts-background" x="0" y="0" width="1347" height="744" rx="0" ry="0"></rect><rect fill="none" class="highcharts-plot-background" x="67" y="62" width="1270" height="563"></rect><g class="highcharts-grid highcharts-xaxis-grid "><path fill="none" class="highcharts-grid-line" d="M 193.5 62 L 193.5 625" opacity="1"></path><path fill="none" class="highcharts-grid-line" d="M 320.5 62 L 320.5 625" opacity="1"></path><path fill="none" class="highcharts-grid-line" d="M 447.5 62 L 447.5 625" opacity="1"></path><path fill="none" class="highcharts-grid-line" d="M 574.5 62 L 574.5 625" opacity="1"></path><path fill="none" class="highcharts-grid-line" d="M 701.5 62 L 701.5 625" opacity="1"></path><path fill="none" class="highcharts-grid-line" d="M 828.5 62 L 828.5 625" opacity="1"></path><path fill="none" class="highcharts-grid-line" d="M 955.5 62 L 955.5 625" opacity="1"></path><path fill="none" class="highcharts-grid-line" d="M 1082.5 62 L 1082.5 625" opacity="1"></path><path fill="none" class="highcharts-grid-line" d="M 1209.5 62 L 1209.5 625" opacity="1"></path><path fill="none" class="highcharts-grid-line" d="M 1336.5 62 L 1336.5 625" opacity="1"></path><path fill="none" class="highcharts-grid-line" d="M 66.5 62 L 66.5 625" opacity="1"></path></g><g class="highcharts-grid highcharts-yaxis-grid "><path fill="none" stroke="#e6e6e6" stroke-width="1" class="highcharts-grid-line" d="M 67 625.5 L 1337 625.5" opacity="1"></path><path fill="none" stroke="#e6e6e6" stroke-width="1" class="highcharts-grid-line" d="M 67 562.5 L 1337 562.5" opacity="1"></path><path fill="none" stroke="#e6e6e6" stroke-width="1" class="highcharts-grid-line" d="M 67 500.5 L 1337 500.5" opacity="1"></path><path fill="none" stroke="#e6e6e6" stroke-width="1" class="highcharts-grid-line" d="M 67 437.5 L 1337 437.5" opacity="1"></path><path fill="none" stroke="#e6e6e6" stroke-width="1" class="highcharts-grid-line" d="M 67 375.5 L 1337 375.5" opacity="1"></path><path fill="none" stroke="#e6e6e6" stroke-width="1" class="highcharts-grid-line" d="M 67 312.5 L 1337 312.5" opacity="1"></path><path fill="none" stroke="#e6e6e6" stroke-width="1" class="highcharts-grid-line" d="M 67 250.5 L 1337 250.5" opacity="1"></path><path fill="none" stroke="#e6e6e6" stroke-width="1" class="highcharts-grid-line" d="M 67 187.5 L 1337 187.5" opacity="1"></path><path fill="none" stroke="#e6e6e6" stroke-width="1" class="highcharts-grid-line" d="M 67 125.5 L 1337 125.5" opacity="1"></path><path fill="none" stroke="#e6e6e6" stroke-width="1" class="highcharts-grid-line" d="M 67 61.5 L 1337 61.5" opacity="1"></path></g><rect fill="none" class="highcharts-plot-border" x="67" y="62" width="1270" height="563"></rect><g class="highcharts-axis highcharts-xaxis "><path fill="none" class="highcharts-tick" stroke="#ccd6eb" stroke-width="1" d="M 193.5 625 L 193.5 635" opacity="1"></path><path fill="none" class="highcharts-tick" stroke="#ccd6eb" stroke-width="1" d="M 320.5 625 L 320.5 635" opacity="1"></path><path fill="none" class="highcharts-tick" stroke="#ccd6eb" stroke-width="1" d="M 447.5 625 L 447.5 635" opacity="1"></path><path fill="none" class="highcharts-tick" stroke="#ccd6eb" stroke-width="1" d="M 574.5 625 L 574.5 635" opacity="1"></path><path fill="none" class="highcharts-tick" stroke="#ccd6eb" stroke-width="1" d="M 701.5 625 L 701.5 635" opacity="1"></path><path fill="none" class="highcharts-tick" stroke="#ccd6eb" stroke-width="1" d="M 828.5 625 L 828.5 635" opacity="1"></path><path fill="none" class="highcharts-tick" stroke="#ccd6eb" stroke-width="1" d="M 955.5 625 L 955.5 635" opacity="1"></path><path fill="none" class="highcharts-tick" stroke="#ccd6eb" stroke-width="1" d="M 1082.5 625 L 1082.5 635" opacity="1"></path><path fill="none" class="highcharts-tick" stroke="#ccd6eb" stroke-width="1" d="M 1209.5 625 L 1209.5 635" opacity="1"></path><path fill="none" class="highcharts-tick" stroke="#ccd6eb" stroke-width="1" d="M 1337.5 625 L 1337.5 635" opacity="1"></path><path fill="none" class="highcharts-tick" stroke="#ccd6eb" stroke-width="1" d="M 66.5 625 L 66.5 635" opacity="1"></path><path fill="none" class="highcharts-axis-line" stroke="#ccd6eb" stroke-width="1" d="M 67 625.5 L 1337 625.5"></path></g><g class="highcharts-axis highcharts-yaxis "><text x="25.171875" text-anchor="middle" transform="translate(0,0) rotate(270 25.171875 343.5)" class="highcharts-axis-title" style="color:#666666;fill:#666666;" y="343.5">ops/s</text><path fill="none" class="highcharts-axis-line" d="M 67 62 L 67 625"></path></g><g class="highcharts-series-group"><g class="highcharts-series highcharts-series-0 highcharts-spline-series highcharts-color-0 " transform="translate(67,62) scale(1 1)" width="563" height="1270" clip-path="url(#highcharts-13)"><path fill="none" d="M 63.5 366.4377881996937 C 63.5 366.4377881996937 139.7 360.73757824759645 190.5 358.2022700086832 C 241.3 355.6669617697699 266.7 355.39671715715303 317.5 353.7612470051274 C 368.3 352.1257768531018 393.7 350.2172203601907 444.5 350.02491924855514 C 495.3 349.83261813691956 520.7 349.83261813691956 571.5 349.83261813691956 C 622.3 349.83261813691956 647.7 349.83261813691956 698.5 349.83261813691956 C 749.3 349.83261813691956 774.7 349.83261813691956 825.5 349.83261813691956 C 876.3 349.83261813691956 901.7 349.83261813691956 952.5 349.83261813691956 C 1003.3 349.83261813691956 1028.7 349.83261813691956 1079.5 349.83261813691956 C 1130.3 349.83261813691956 1206.5 349.83261813691956 1206.5 349.83261813691956" class="highcharts-graph" stroke="#4572A7" stroke-width="2" stroke-linejoin="round" stroke-linecap="round"></path></g><g class="highcharts-markers highcharts-series-0 highcharts-spline-series highcharts-color-0 " transform="translate(67,62) scale(1 1)" width="563" height="1270" clip-path="none"></g><g class="highcharts-series highcharts-series-1 highcharts-spline-series highcharts-color-1 " transform="translate(67,62) scale(1 1)" width="563" height="1270" clip-path="url(#highcharts-13)"><path fill="none" d="M 63.5 308.0840597977385 C 63.5 308.0840597977385 139.7 292.2613559410458 190.5 285.6969915955976 C 241.3 279.13262725014937 266.7 275.50248212606743 317.5 275.2622380704974 C 368.3 275.0219940149274 393.7 275.0237293639842 444.5 275.0219940149274 C 495.3 275.02025866587053 520.7 275.02025866587053 571.5 275.02025866587053 C 622.3 275.02025866587053 647.7 275.02025866587053 698.5 275.02025866587053 C 749.3 275.02025866587053 774.7 275.02025866587053 825.5 275.02025866587053 C 876.3 275.02025866587053 901.7 275.02025866587053 952.5 275.02025866587053 C 1003.3 275.02025866587053 1028.7 275.02025866587053 1079.5 275.02025866587053 C 1130.3 275.02025866587053 1206.5 275.02025866587053 1206.5 275.02025866587053" class="highcharts-graph" stroke="#AA4643" stroke-width="2" stroke-linejoin="round" stroke-linecap="round"></path></g><g class="highcharts-markers highcharts-series-1 highcharts-spline-series highcharts-color-1 " transform="translate(67,62) scale(1 1)" width="563" height="1270" clip-path="none"></g><g class="highcharts-series highcharts-series-2 highcharts-spline-series highcharts-color-2 " transform="translate(67,62) scale(1 1)" width="563" height="1270" clip-path="url(#highcharts-13)"><path fill="none" d="M 63.5 308.8727194571642 C 63.5 308.8727194571642 139.7 292.20293802086724 190.5 287.7779603602396 C 241.3 283.35298269961197 266.7 283.4535457187695 317.5 283.35298269961197 C 368.3 283.25241968045447 393.7 283.2524497744712 444.5 283.25241968045447 C 495.3 283.25238958643774 520.7 283.25238958643774 571.5 283.25238958643774 C 622.3 283.25238958643774 647.7 283.25238958643774 698.5 283.25238958643774 C 749.3 283.25238958643774 774.7 283.25238958643774 825.5 283.25238958643774 C 876.3 283.25238958643774 901.7 283.25238958643774 952.5 283.25238958643774 C 1003.3 283.25238958643774 1028.7 283.25238958643774 1079.5 283.25238958643774 C 1130.3 283.25238958643774 1206.5 283.25238958643774 1206.5 283.25238958643774" class="highcharts-graph" stroke="#89A54E" stroke-width="2" stroke-linejoin="round" stroke-linecap="round"></path></g><g class="highcharts-markers highcharts-series-2 highcharts-spline-series highcharts-color-2 " transform="translate(67,62) scale(1 1)" width="563" height="1270" clip-path="none"></g><g class="highcharts-series highcharts-series-3 highcharts-spline-series highcharts-color-3 " transform="translate(67,62) scale(1 1)" width="563" height="1270" clip-path="url(#highcharts-13)"><path fill="none" d="M 63.5 169.27052558357383 C 63.5 169.27052558357383 139.7 119.34445815751043 190.5 102.69604302541865 C 241.3 86.04762789332686 266.7 88.83755001074746 317.5 86.02844992311498 C 368.3 83.21934983548249 393.7 83.35547455747485 444.5 83.21934983548249 C 495.3 83.08322511349013 520.7 83.08322511349013 571.5 83.08322511349013 C 622.3 83.08322511349013 647.7 83.08322511349013 698.5 83.08322511349013 C 749.3 83.08322511349013 774.7 83.08322511349013 825.5 83.08322511349013 C 876.3 83.08322511349013 901.7 83.08322511349013 952.5 83.08322511349013 C 1003.3 83.08322511349013 1028.7 83.08322511349013 1079.5 83.08322511349013 C 1130.3 83.08322511349013 1206.5 83.08322511349013 1206.5 83.08322511349013" class="highcharts-graph" stroke="#80699B" stroke-width="2" stroke-linejoin="round" stroke-linecap="round"></path></g><g class="highcharts-markers highcharts-series-3 highcharts-spline-series highcharts-color-3 " transform="translate(67,62) scale(1 1)" width="563" height="1270" clip-path="none"></g></g><text x="674" text-anchor="middle" class="highcharts-title" style="color:#333333;font-size:18px;fill:#333333;width:1283px;" y="24"><tspan>Throughput percentiles (ops/s)</tspan></text><text x="674" text-anchor="middle" class="highcharts-subtitle" style="color:#666666;fill:#666666;width:1283px;" y="46"><tspan>c.f.c.b.LoadMovingZipfBenchmark</tspan></text><g class="highcharts-legend" transform="translate(539,658)"><rect fill="none" class="highcharts-legend-box" rx="0" ry="0" x="0" y="0" width="269" height="71" visibility="visible"></rect><g><g><g class="highcharts-legend-item highcharts-spline-series highcharts-color-0 highcharts-series-0" transform="translate(8,3)"><path fill="none" d="M 0 11 L 16 11" class="highcharts-graph" stroke="#4572A7" stroke-width="2"></path><text x="21" style="color:#333333;font-size:12px;font-weight:bold;cursor:pointer;fill:#333333;" text-anchor="start" y="15">getSpread(cacheType=Cache2k)</text></g><g class="highcharts-legend-item highcharts-spline-series highcharts-color-1 highcharts-series-1" transform="translate(8,18)"><path fill="none" d="M 0 11 L 16 11" class="highcharts-graph" stroke="#AA4643" stroke-width="2"></path><text x="21" y="15" style="color:#333333;font-size:12px;font-weight:bold;cursor:pointer;fill:#333333;" text-anchor="start">getSpread(cacheType=Caffeine)</text></g><g class="highcharts-legend-item highcharts-spline-series highcharts-color-2 highcharts-series-2" transform="translate(8,33)"><path fill="none" d="M 0 11 L 16 11" class="highcharts-graph" stroke="#89A54E" stroke-width="2"></path><text x="21" y="15" style="color:#333333;font-size:12px;font-weight:bold;cursor:pointer;fill:#333333;" text-anchor="start">getSpread(cacheType=Collision)</text></g><g class="highcharts-legend-item highcharts-spline-series highcharts-color-3 highcharts-series-3" transform="translate(8,48)"><path fill="none" d="M 0 11 L 16 11" class="highcharts-graph" stroke="#80699B" stroke-width="2"></path><text x="21" y="15" style="color:#333333;font-size:12px;font-weight:bold;cursor:pointer;fill:#333333;" text-anchor="start">getSpread(cacheType=Collision_Aggressive)</text></g></g></g></g><g class="highcharts-axis-labels highcharts-xaxis-labels "><text x="130.5" style="color:#666666;cursor:default;font-size:11px;fill:#666666;width:123px;text-overflow:clip;" text-anchor="middle" transform="translate(0,0)" y="644" opacity="1"><tspan>0.0</tspan></text><text x="257.5" style="color:#666666;cursor:default;font-size:11px;fill:#666666;width:123px;text-overflow:clip;" text-anchor="middle" transform="translate(0,0)" y="644" opacity="1"><tspan>50.0</tspan></text><text x="384.5" style="color:#666666;cursor:default;font-size:11px;fill:#666666;width:123px;text-overflow:clip;" text-anchor="middle" transform="translate(0,0)" y="644" opacity="1"><tspan>90.0</tspan></text><text x="511.5" style="color:#666666;cursor:default;font-size:11px;fill:#666666;width:123px;text-overflow:clip;" text-anchor="middle" transform="translate(0,0)" y="644" opacity="1"><tspan>95.0</tspan></text><text x="638.5" style="color:#666666;cursor:default;font-size:11px;fill:#666666;width:123px;text-overflow:clip;" text-anchor="middle" transform="translate(0,0)" y="644" opacity="1"><tspan>99.0</tspan></text><text x="765.5" style="color:#666666;cursor:default;font-size:11px;fill:#666666;width:123px;text-overflow:clip;" text-anchor="middle" transform="translate(0,0)" y="644" opacity="1"><tspan>99.9</tspan></text><text x="892.5" style="color:#666666;cursor:default;font-size:11px;fill:#666666;width:123px;text-overflow:clip;" text-anchor="middle" transform="translate(0,0)" y="644" opacity="1"><tspan>99.99</tspan></text><text x="1019.5" style="color:#666666;cursor:default;font-size:11px;fill:#666666;width:123px;text-overflow:clip;" text-anchor="middle" transform="translate(0,0)" y="644" opacity="1"><tspan>99.999</tspan></text><text x="1146.5" style="color:#666666;cursor:default;font-size:11px;fill:#666666;width:123px;text-overflow:clip;" text-anchor="middle" transform="translate(0,0)" y="644" opacity="1"><tspan>99.9999</tspan></text><text x="1273.5" style="color:#666666;cursor:default;font-size:11px;fill:#666666;width:123px;text-overflow:clip;" text-anchor="middle" transform="translate(0,0)" y="644" opacity="1"><tspan>100.0</tspan></text></g><g class="highcharts-axis-labels highcharts-yaxis-labels "><text x="52" style="color:#666666;cursor:default;font-size:11px;fill:#666666;width:435px;text-overflow:clip;" text-anchor="end" transform="translate(0,0)" y="630" opacity="1"><tspan>0</tspan></text><text x="52" style="color:#666666;cursor:default;font-size:11px;fill:#666666;width:435px;text-overflow:clip;" text-anchor="end" transform="translate(0,0)" y="567" opacity="1"><tspan>1M</tspan></text><text x="52" style="color:#666666;cursor:default;font-size:11px;fill:#666666;width:435px;text-overflow:clip;" text-anchor="end" transform="translate(0,0)" y="504" opacity="1"><tspan>2M</tspan></text><text x="52" style="color:#666666;cursor:default;font-size:11px;fill:#666666;width:435px;text-overflow:clip;" text-anchor="end" transform="translate(0,0)" y="442" opacity="1"><tspan>3M</tspan></text><text x="52" style="color:#666666;cursor:default;font-size:11px;fill:#666666;width:435px;text-overflow:clip;" text-anchor="end" transform="translate(0,0)" y="379" opacity="1"><tspan>4M</tspan></text><text x="52" style="color:#666666;cursor:default;font-size:11px;fill:#666666;width:435px;text-overflow:clip;" text-anchor="end" transform="translate(0,0)" y="317" opacity="1"><tspan>5M</tspan></text><text x="52" style="color:#666666;cursor:default;font-size:11px;fill:#666666;width:435px;text-overflow:clip;" text-anchor="end" transform="translate(0,0)" y="254" opacity="1"><tspan>6M</tspan></text><text x="52" style="color:#666666;cursor:default;font-size:11px;fill:#666666;width:435px;text-overflow:clip;" text-anchor="end" transform="translate(0,0)" y="192" opacity="1"><tspan>7M</tspan></text><text x="52" style="color:#666666;cursor:default;font-size:11px;fill:#666666;width:435px;text-overflow:clip;" text-anchor="end" transform="translate(0,0)" y="129" opacity="1"><tspan>8M</tspan></text><text x="52" style="color:#666666;cursor:default;font-size:11px;fill:#666666;width:435px;text-overflow:clip;" text-anchor="end" transform="translate(0,0)" y="67" opacity="1"><tspan>9M</tspan></text></g><g class="highcharts-label highcharts-tooltip" display="none" style="cursor:default;pointer-events:none;white-space:nowrap;" transform="translate(0,0)"><path fill="none" class="highcharts-label-box highcharts-tooltip-box" d="M 3.5 0.5 L 13.5 0.5 C 16.5 0.5 16.5 0.5 16.5 3.5 L 16.5 13.5 C 16.5 16.5 16.5 16.5 13.5 16.5 L 3.5 16.5 C 0.5 16.5 0.5 16.5 0.5 13.5 L 0.5 3.5 C 0.5 0.5 0.5 0.5 3.5 0.5"  stroke="#000000" stroke-opacity="0.049999999999999996" stroke-width="5" transform="translate(1, 1)"></path><path fill="none" class="highcharts-label-box highcharts-tooltip-box" d="M 3.5 0.5 L 13.5 0.5 C 16.5 0.5 16.5 0.5 16.5 3.5 L 16.5 13.5 C 16.5 16.5 16.5 16.5 13.5 16.5 L 3.5 16.5 C 0.5 16.5 0.5 16.5 0.5 13.5 L 0.5 3.5 C 0.5 0.5 0.5 0.5 3.5 0.5"  stroke="#000000" stroke-opacity="0.09999999999999999" stroke-width="3" transform="translate(1, 1)"></path><path fill="none" class="highcharts-label-box highcharts-tooltip-box" d="M 3.5 0.5 L 13.5 0.5 C 16.5 0.5 16.5 0.5 16.5 3.5 L 16.5 13.5 C 16.5 16.5 16.5 16.5 13.5 16.5 L 3.5 16.5 C 0.5 16.5 0.5 16.5 0.5 13.5 L 0.5 3.5 C 0.5 0.5 0.5 0.5 3.5 0.5"  stroke="#000000" stroke-opacity="0.15" stroke-width="1" transform="translate(1, 1)"></path><path fill="rgb(247,247,247)" fill-opacity="0.85" class="highcharts-label-box highcharts-tooltip-box" d="M 3.5 0.5 L 13.5 0.5 C 16.5 0.5 16.5 0.5 16.5 3.5 L 16.5 13.5 C 16.5 16.5 16.5 16.5 13.5 16.5 L 3.5 16.5 C 0.5 16.5 0.5 16.5 0.5 13.5 L 0.5 3.5 C 0.5 0.5 0.5 0.5 3.5 0.5"></path><text x="8" style="font-size:12px;color:#333333;fill:#333333;" y="20"></text></g></svg>