<?xml version="1.0" standalone="no"?><!DOCTYPE svg PUBLIC "-//W3C//DTD SVG 1.1//EN" "http://www.w3.org/Graphics/SVG/1.1/DTD/svg11.dtd"><svg xmlns:xlink="http://www.w3.org/1999/xlink" version="1.1" class="highcharts-root" style="font-family:signika, serif;font-size:12px;" xmlns="http://www.w3.org/2000/svg" width="1347" viewBox="0 0 1347 728" height="728"><desc>Created with Highcharts 5.0.0</desc><defs><clipPath id="highcharts-13"><rect x="0" y="0" width="1270" height="547" fill="none"></rect></clipPath></defs><rect fill="#ffffff" class="highcharts-background" x="0" y="0" width="1347" height="728" rx="0" ry="0"></rect><rect fill="none" class="highcharts-plot-background" x="67" y="62" width="1270" height="547"></rect><g class="highcharts-grid highcharts-xaxis-grid "><path fill="none" class="highcharts-grid-line" d="M 193.5 62 L 193.5 609" opacity="1"></path><path fill="none" class="highcharts-grid-line" d="M 320.5 62 L 320.5 609" opacity="1"></path><path fill="none" class="highcharts-grid-line" d="M 447.5 62 L 447.5 609" opacity="1"></path><path fill="none" class="highcharts-grid-line" d="M 574.5 62 L 574.5 609" opacity="1"></path><path fill="none" class="highcharts-grid-line" d="M 701.5 62 L 701.5 609" opacity="1"></path><path fill="none" class="highcharts-grid-line" d="M 828.5 62 L 828.5 609" opacity="1"></path><path fill="none" class="highcharts-grid-line" d="M 955.5 62 L 955.5 609" opacity="1"></path><path fill="none" class="highcharts-grid-line" d="M 1082.5 62 L 1082.5 609" opacity="1"></path><path fill="none" class="highcharts-grid-line" d="M 1209.5 62 L 1209.5 609" opacity="1"></path><path fill="none" class="highcharts-grid-line" d="M 1336.5 62 L 1336.5 609" opacity="1"></path><path fill="none" class="highcharts-grid-line" d="M 66.5 62 L 66.5 609" opacity="1"></path></g><g class="highcharts-grid highcharts-yaxis-grid "><path fill="none" stroke="#e6e6e6" stroke-width="1" class="highcharts-grid-line" d="M 67 609.5 L 1337 609.5" opacity="1"></path><path fill="none" stroke="#e6e6e6" stroke-width="1" class="highcharts-grid-line" d="M 67 548.5 L 1337 548.5" opacity="1"></path><path fill="none" stroke="#e6e6e6" stroke-width="1" class="highcharts-grid-line" d="M 67 487.5 L 1337 487.5" opacity="1"></path><path fill="none" stroke="#e6e6e6" stroke-width="1" class="highcharts-grid-line" d="M 67 427.5 L 1337 427.5" opacity="1"></path><path fill="none" stroke="#e6e6e6" stroke-width="1" class="highcharts-grid-line" d="M 67 366.5 L 1337 366.5" opacity="1"></path><path fill="none" stroke="#e6e6e6" stroke-width="1" class="highcharts-grid-line" d="M 67 305.5 L 1337 305.5" opacity="1"></path><path fill="none" stroke="#e6e6e6" stroke-width="1" class="highcharts-grid-line" d="M 67 244.5 L 1337 244.5" opacity="1"></path><path fill="none" stroke="#e6e6e6" stroke-width="1" class="highcharts-grid-line" d="M 67 184.5 L 1337 184.5" opacity="1"></path><path fill="none" stroke="#e6e6e6" stroke-width="1" class="highcharts-grid-line" d="M 67 123.5 L 1337 123.5" opacity="1"></path><path fill="none" stroke="#e6e6e6" stroke-width="1" class="highcharts-grid-line" d="M 67 61.5 L 1337 61.5" opacity="1"></path></g><rect fill="none" class="highcharts-plot-border" x="67" y="62" width="1270" height="547"></rect><g class="highcharts-axis highcharts-xaxis "><path fill="none" class="highcharts-tick" stroke="#ccd6eb" stroke-width="1" d="M 193.5 609 L 193.5 619" opacity="1"></path><path fill="none" class="highcharts-tick" stroke="#ccd6eb" stroke-width="1" d="M 320.5 609 L 320.5 619" opacity="1"></path><path fill="none" class="highcharts-tick" stroke="#ccd6eb" stroke-width="1" d="M 447.5 609 L 447.5 619" opacity="1"></path><path fill="none" class="highcharts-tick" stroke="#ccd6eb" stroke-width="1" d="M 574.5 609 L 574.5 619" opacity="1"></path><path fill="none" class="highcharts-tick" stroke="#ccd6eb" stroke-width="1" d="M 701.5 609 L 701.5 619" opacity="1"></path><path fill="none" class="highcharts-tick" stroke="#ccd6eb" stroke-width="1" d="M 828.5 609 L 828.5 619" opacity="1"></path><path fill="none" class="highcharts-tick" stroke="#ccd6eb" stroke-width="1" d="M 955.5 609 L 955.5 619" opacity="1"></path><path fill="none" class="highcharts-tick" stroke="#ccd6eb" stroke-width="1" d="M 1082.5 609 L 1082.5 619" opacity="1"></path><path fill="none" class="highcharts-tick" stroke="#ccd6eb" stroke-width="1" d="M 1209.5 609 L 1209.5 619" opacity="1"></path><path fill="none" class="highcharts-tick" stroke="#ccd6eb" stroke-width="1" d="M 1337.5 609 L 1337.5 619" opacity="1"></path><path fill="none" class="highcharts-tick" stroke="#ccd6eb" stroke-width="1" d="M 66.5 609 L 66.5 619" opacity="1"></path><path fill="none" class="highcharts-axis-line" stroke="#ccd6eb" stroke-width="1" d="M 67 609.5 L 1337 609.5"></path></g><g class="highcharts-axis highcharts-yaxis "><text x="25.171875" text-anchor="middle" transform="translate(0,0) rotate(270 25.171875 335.5)" class="highcharts-axis-title" style="color:#666666;fill:#666666;" y="335.5">ops/s</text><path fill="none" class="highcharts-axis-line" d="M 67 62 L 67 609"></path></g><g class="highcharts-series-group"><g class="highcharts-series highcharts-series-0 highcharts-spline-series highcharts-color-0 " transform="translate(67,62) scale(1 1)" width="547" height="1270" clip-path="url(#highcharts-13)"><path fill="none" d="M 63.5 361.62472722895393 C 63.5 361.62472722895393 139.7 354.38309415650264 190.5 350.6914521844822 C 241.3 346.9998102124618 266.7 345.19441747240893 317.5 343.16651736885177 C 368.3 341.1386172652946 393.7 340.6892159638245 444.5 340.55195166669637 C 495.3 340.41468736956824 520.7 340.41468736956824 571.5 340.41468736956824 C 622.3 340.41468736956824 647.7 340.41468736956824 698.5 340.41468736956824 C 749.3 340.41468736956824 774.7 340.41468736956824 825.5 340.41468736956824 C 876.3 340.41468736956824 901.7 340.41468736956824 952.5 340.41468736956824 C 1003.3 340.41468736956824 1028.7 340.41468736956824 1079.5 340.41468736956824 C 1130.3 340.41468736956824 1206.5 340.41468736956824 1206.5 340.41468736956824" class="highcharts-graph" stroke="#4572A7" stroke-width="2" stroke-linejoin="round" stroke-linecap="round"></path></g><g class="highcharts-markers highcharts-series-0 highcharts-spline-series highcharts-color-0 " transform="translate(67,62) scale(1 1)" width="547" height="1270" clip-path="none"></g><g class="highcharts-series highcharts-series-1 highcharts-spline-series highcharts-color-1 " transform="translate(67,62) scale(1 1)" width="547" height="1270" clip-path="url(#highcharts-13)"><path fill="none" d="M 63.5 305.6993907843246 C 63.5 305.6993907843246 139.7 279.5667653276784 190.5 270.76767243128376 C 241.3 261.9685795348891 266.7 264.3005697761767 317.5 261.70392630235136 C 368.3 259.1072828285261 393.7 257.9746357074005 444.5 257.7844550621572 C 495.3 257.59427441691383 520.7 257.59427441691383 571.5 257.59427441691383 C 622.3 257.59427441691383 647.7 257.59427441691383 698.5 257.59427441691383 C 749.3 257.59427441691383 774.7 257.59427441691383 825.5 257.59427441691383 C 876.3 257.59427441691383 901.7 257.59427441691383 952.5 257.59427441691383 C 1003.3 257.59427441691383 1028.7 257.59427441691383 1079.5 257.59427441691383 C 1130.3 257.59427441691383 1206.5 257.59427441691383 1206.5 257.59427441691383" class="highcharts-graph" stroke="#AA4643" stroke-width="2" stroke-linejoin="round" stroke-linecap="round"></path></g><g class="highcharts-markers highcharts-series-1 highcharts-spline-series highcharts-color-1 " transform="translate(67,62) scale(1 1)" width="547" height="1270" clip-path="none"></g><g class="highcharts-series highcharts-series-2 highcharts-spline-series highcharts-color-2 " transform="translate(67,62) scale(1 1)" width="547" height="1270" clip-path="url(#highcharts-13)"><path fill="none" d="M 63.5 297.474422726067 C 63.5 297.474422726067 139.7 281.9316309334096 190.5 276.5356994835626 C 241.3 271.13976803371554 266.7 272.24077898346263 317.5 270.49476547683184 C 368.3 268.74875197020106 393.7 267.9391894033976 444.5 267.8056319504085 C 495.3 267.6720744974194 520.7 267.6720744974194 571.5 267.6720744974194 C 622.3 267.6720744974194 647.7 267.6720744974194 698.5 267.6720744974194 C 749.3 267.6720744974194 774.7 267.6720744974194 825.5 267.6720744974194 C 876.3 267.6720744974194 901.7 267.6720744974194 952.5 267.6720744974194 C 1003.3 267.6720744974194 1028.7 267.6720744974194 1079.5 267.6720744974194 C 1130.3 267.6720744974194 1206.5 267.6720744974194 1206.5 267.6720744974194" class="highcharts-graph" stroke="#89A54E" stroke-width="2" stroke-linejoin="round" stroke-linecap="round"></path></g><g class="highcharts-markers highcharts-series-2 highcharts-spline-series highcharts-color-2 " transform="translate(67,62) scale(1 1)" width="547" height="1270" clip-path="none"></g><g class="highcharts-series highcharts-series-3 highcharts-spline-series highcharts-color-3 " transform="translate(67,62) scale(1 1)" width="547" height="1270" clip-path="url(#highcharts-13)"><path fill="none" d="M 63.5 128.73652682607235 C 63.5 128.73652682607235 139.7 116.69385563748267 190.5 106.20676705347535 C 241.3 95.71967846946802 266.7 78.39971300490174 317.5 76.30108390603573 C 368.3 74.20245480716972 393.7 74.30889977202332 444.5 74.20245480716972 C 495.3 74.0960098423161 520.7 74.0960098423161 571.5 74.0960098423161 C 622.3 74.0960098423161 647.7 74.0960098423161 698.5 74.0960098423161 C 749.3 74.0960098423161 774.7 74.0960098423161 825.5 74.0960098423161 C 876.3 74.0960098423161 901.7 74.0960098423161 952.5 74.0960098423161 C 1003.3 74.0960098423161 1028.7 74.0960098423161 1079.5 74.0960098423161 C 1130.3 74.0960098423161 1206.5 74.0960098423161 1206.5 74.0960098423161" class="highcharts-graph" stroke="#80699B" stroke-width="2" stroke-linejoin="round" stroke-linecap="round"></path></g><g class="highcharts-markers highcharts-series-3 highcharts-spline-series highcharts-color-3 " transform="translate(67,62) scale(1 1)" width="547" height="1270" clip-path="none"></g></g><text x="674" text-anchor="middle" class="highcharts-title" style="color:#333333;font-size:18px;fill:#333333;width:1283px;" y="24"><tspan>Throughput percentiles (ops/s)</tspan></text><text x="674" text-anchor="middle" class="highcharts-subtitle" style="color:#666666;fill:#666666;width:1283px;" y="46"><tspan>c.f.c.b.LoadMovingZipfBenchmark</tspan></text><g class="highcharts-legend" transform="translate(539,642)"><rect fill="none" class="highcharts-legend-box" rx="0" ry="0" x="0" y="0" width="269" height="71" visibility="visible"></rect><g><g><g class="highcharts-legend-item highcharts-spline-series highcharts-color-0 highcharts-series-0" transform="translate(8,3)"><path fill="none" d="M 0 11 L 16 11" class="highcharts-graph" stroke="#4572A7" stroke-width="2"></path><text x="21" style="color:#333333;font-size:12px;font-weight:bold;cursor:pointer;fill:#333333;" text-anchor="start" y="15">getSpread(cacheType=Cache2k)</text></g><g class="highcharts-legend-item highcharts-spline-series highcharts-color-1 highcharts-series-1" transform="translate(8,18)"><path fill="none" d="M 0 11 L 16 11" class="highcharts-graph" stroke="#AA4643" stroke-width="2"></path><text x="21" y="15" style="color:#333333;font-size:12px;font-weight:bold;cursor:pointer;fill:#333333;" text-anchor="start">getSpread(cacheType=Caffeine)</text></g><g class="highcharts-legend-item highcharts-spline-series highcharts-color-2 highcharts-series-2" transform="translate(8,33)"><path fill="none" d="M 0 11 L 16 11" class="highcharts-graph" stroke="#89A54E" stroke-width="2"></path><text x="21" y="15" style="color:#333333;font-size:12px;font-weight:bold;cursor:pointer;fill:#333333;" text-anchor="start">getSpread(cacheType=Collision)</text></g><g class="highcharts-legend-item highcharts-spline-series highcharts-color-3 highcharts-series-3" transform="translate(8,48)"><path fill="none" d="M 0 11 L 16 11" class="highcharts-graph" stroke="#80699B" stroke-width="2"></path><text x="21" y="15" style="color:#333333;font-size:12px;font-weight:bold;cursor:pointer;fill:#333333;" text-anchor="start">getSpread(cacheType=Collision_Aggressive)</text></g></g></g></g><g class="highcharts-axis-labels highcharts-xaxis-labels "><text x="130.5" style="color:#666666;cursor:default;font-size:11px;fill:#666666;width:123px;text-overflow:clip;" text-anchor="middle" transform="translate(0,0)" y="628" opacity="1"><tspan>0.0</tspan></text><text x="257.5" style="color:#666666;cursor:default;font-size:11px;fill:#666666;width:123px;text-overflow:clip;" text-anchor="middle" transform="translate(0,0)" y="628" opacity="1"><tspan>50.0</tspan></text><text x="384.5" style="color:#666666;cursor:default;font-size:11px;fill:#666666;width:123px;text-overflow:clip;" text-anchor="middle" transform="translate(0,0)" y="628" opacity="1"><tspan>90.0</tspan></text><text x="511.5" style="color:#666666;cursor:default;font-size:11px;fill:#666666;width:123px;text-overflow:clip;" text-anchor="middle" transform="translate(0,0)" y="628" opacity="1"><tspan>95.0</tspan></text><text x="638.5" style="color:#666666;cursor:default;font-size:11px;fill:#666666;width:123px;text-overflow:clip;" text-anchor="middle" transform="translate(0,0)" y="628" opacity="1"><tspan>99.0</tspan></text><text x="765.5" style="color:#666666;cursor:default;font-size:11px;fill:#666666;width:123px;text-overflow:clip;" text-anchor="middle" transform="translate(0,0)" y="628" opacity="1"><tspan>99.9</tspan></text><text x="892.5" style="color:#666666;cursor:default;font-size:11px;fill:#666666;width:123px;text-overflow:clip;" text-anchor="middle" transform="translate(0,0)" y="628" opacity="1"><tspan>99.99</tspan></text><text x="1019.5" style="color:#666666;cursor:default;font-size:11px;fill:#666666;width:123px;text-overflow:clip;" text-anchor="middle" transform="translate(0,0)" y="628" opacity="1"><tspan>99.999</tspan></text><text x="1146.5" style="color:#666666;cursor:default;font-size:11px;fill:#666666;width:123px;text-overflow:clip;" text-anchor="middle" transform="translate(0,0)" y="628" opacity="1"><tspan>99.9999</tspan></text><text x="1273.5" style="color:#666666;cursor:default;font-size:11px;fill:#666666;width:123px;text-overflow:clip;" text-anchor="middle" transform="translate(0,0)" y="628" opacity="1"><tspan>100.0</tspan></text></g><g class="highcharts-axis-labels highcharts-yaxis-labels "><text x="52" style="color:#666666;cursor:default;font-size:11px;fill:#666666;width:435px;text-overflow:clip;" text-anchor="end" transform="translate(0,0)" y="614" opacity="1"><tspan>0</tspan></text><text x="52" style="color:#666666;cursor:default;font-size:11px;fill:#666666;width:435px;text-overflow:clip;" text-anchor="end" transform="translate(0,0)" y="553" opacity="1"><tspan>1M</tspan></text><text x="52" style="color:#666666;cursor:default;font-size:11px;fill:#666666;width:435px;text-overflow:clip;" text-anchor="end" transform="translate(0,0)" y="492" opacity="1"><tspan>2M</tspan></text><text x="52" style="color:#666666;cursor:default;font-size:11px;fill:#666666;width:435px;text-overflow:clip;" text-anchor="end" transform="translate(0,0)" y="431" opacity="1"><tspan>3M</tspan></text><text x="52" style="color:#666666;cursor:default;font-size:11px;fill:#666666;width:435px;text-overflow:clip;" text-anchor="end" transform="translate(0,0)" y="370" opacity="1"><tspan>4M</tspan></text><text x="52" style="color:#666666;cursor:default;font-size:11px;fill:#666666;width:435px;text-overflow:clip;" text-anchor="end" transform="translate(0,0)" y="310" opacity="1"><tspan>5M</tspan></text><text x="52" style="color:#666666;cursor:default;font-size:11px;fill:#666666;width:435px;text-overflow:clip;" text-anchor="end" transform="translate(0,0)" y="249" opacity="1"><tspan>6M</tspan></text><text x="52" style="color:#666666;cursor:default;font-size:11px;fill:#666666;width:435px;text-overflow:clip;" text-anchor="end" transform="translate(0,0)" y="188" opacity="1"><tspan>7M</tspan></text><text x="52" style="color:#666666;cursor:default;font-size:11px;fill:#666666;width:435px;text-overflow:clip;" text-anchor="end" transform="translate(0,0)" y="127" opacity="1"><tspan>8M</tspan></text><text x="52" style="color:#666666;cursor:default;font-size:11px;fill:#666666;width:435px;text-overflow:clip;" text-anchor="end" transform="translate(0,0)" y="67" opacity="1"><tspan>9M</tspan></text></g><g class="highcharts-label highcharts-tooltip" display="none" style="cursor:default;pointer-events:none;white-space:nowrap;" transform="translate(0,0)"><path fill="none" class="highcharts-label-box highcharts-tooltip-box" d="M 3.5 0.5 L 13.5 0.5 C 16.5 0.5 16.5 0.5 16.5 3.5 L 16.5 13.5 C 16.5 16.5 16.5 16.5 13.5 16.5 L 3.5 16.5 C 0.5 16.5 0.5 16.5 0.5 13.5 L 0.5 3.5 C 0.5 0.5 0.5 0.5 3.5 0.5"  stroke="#000000" stroke-opacity="0.049999999999999996" stroke-width="5" transform="translate(1, 1)"></path><path fill="none" class="highcharts-label-box highcharts-tooltip-box" d="M 3.5 0.5 L 13.5 0.5 C 16.5 0.5 16.5 0.5 16.5 3.5 L 16.5 13.5 C 16.5 16.5 16.5 16.5 13.5 16.5 L 3.5 16.5 C 0.5 16.5 0.5 16.5 0.5 13.5 L 0.5 3.5 C 0.5 0.5 0.5 0.5 3.5 0.5"  stroke="#000000" stroke-opacity="0.09999999999999999" stroke-width="3" transform="translate(1, 1)"></path><path fill="none" class="highcharts-label-box highcharts-tooltip-box" d="M 3.5 0.5 L 13.5 0.5 C 16.5 0.5 16.5 0.5 16.5 3.5 L 16.5 13.5 C 16.5 16.5 16.5 16.5 13.5 16.5 L 3.5 16.5 C 0.5 16.5 0.5 16.5 0.5 13.5 L 0.5 3.5 C 0.5 0.5 0.5 0.5 3.5 0.5"  stroke="#000000" stroke-opacity="0.15" stroke-width="1" transform="translate(1, 1)"></path><path fill="rgb(247,247,247)" fill-opacity="0.85" class="highcharts-label-box highcharts-tooltip-box" d="M 3.5 0.5 L 13.5 0.5 C 16.5 0.5 16.5 0.5 16.5 3.5 L 16.5 13.5 C 16.5 16.5 16.5 16.5 13.5 16.5 L 3.5 16.5 C 0.5 16.5 0.5 16.5 0.5 13.5 L 0.5 3.5 C 0.5 0.5 0.5 0.5 3.5 0.5"></path><text x="8" style="font-size:12px;color:#333333;fill:#333333;" y="20"></text></g></svg>